<?xml version="1.0" encoding="utf-8"?>
<!-- Generator: Adobe Illustrator 16.0.0, SVG Export Plug-In . SVG Version: 6.00 Build 0)  -->
<!DOCTYPE svg PUBLIC "-//W3C//DTD SVG 1.1//EN" "http://www.w3.org/Graphics/SVG/1.1/DTD/svg11.dtd">
<svg version="1.1" id="Capa_1" xmlns="http://www.w3.org/2000/svg" xmlns:xlink="http://www.w3.org/1999/xlink" x="0px" y="0px"
	 width="79.999px" height="79.999px" viewBox="0 0 79.999 79.999" enable-background="new 0 0 79.999 79.999" xml:space="preserve">
<g>
	<path fill="#575756" d="M65.693,2.626H14.305c-6.451,0-11.679,5.233-11.679,11.68v51.388c0,6.451,5.228,11.68,11.679,11.68h51.388
		c6.451,0,11.68-5.229,11.68-11.68V14.306C77.373,7.859,72.145,2.626,65.693,2.626z M54.857,32.381
		c0.02,0.328,0.023,0.656,0.023,0.99c0,10.132-7.711,21.815-21.816,21.815c-4.33,0-8.358-1.268-11.752-3.444
		c0.602,0.073,1.209,0.105,1.829,0.105c3.595,0,6.897-1.223,9.521-3.28c-3.354-0.06-6.187-2.276-7.163-5.324
		c0.47,0.091,0.949,0.137,1.441,0.137c0.703,0,1.378-0.091,2.021-0.27c-3.504-0.702-6.149-3.805-6.149-7.518
		c0-0.032,0-0.064,0-0.097c1.035,0.575,2.217,0.922,3.472,0.959c-2.058-1.374-3.408-3.724-3.408-6.383
		c0-1.405,0.379-2.719,1.035-3.855c3.782,4.64,9.435,7.692,15.804,8.012c-0.128-0.562-0.196-1.146-0.196-1.747
		c0-4.234,3.431-7.665,7.669-7.665c2.203,0,4.197,0.931,5.594,2.418c1.746-0.342,3.389-0.98,4.871-1.856
		c-0.574,1.788-1.787,3.294-3.371,4.238c1.551-0.183,3.029-0.594,4.402-1.205C57.66,29.949,56.359,31.3,54.857,32.381z"/>
</g>
</svg>
