<?xml version="1.0" encoding="utf-8"?>
<!-- Generator: Adobe Illustrator 15.0.0, SVG Export Plug-In  -->
<!DOCTYPE svg PUBLIC "-//W3C//DTD SVG 1.1//EN" "http://www.w3.org/Graphics/SVG/1.1/DTD/svg11.dtd" [
	<!ENTITY ns_flows "http://ns.adobe.com/Flows/1.0/">
]>
<svg version="1.1"
	 xmlns="http://www.w3.org/2000/svg" xmlns:xlink="http://www.w3.org/1999/xlink" xmlns:a="http://ns.adobe.com/AdobeSVGViewerExtensions/3.0/"
	 x="0px" y="0px" width="113px" height="102px" viewBox="0 1.354 113 102" enable-background="new 0 1.354 113 102"
	 xml:space="preserve">
<defs>
</defs>
<path fill-rule="evenodd" clip-rule="evenodd" fill="#6A9ACB" d="M35.443,26.563c0-3.117-0.065-6.137,0.043-9.152
	c0.028-0.779,0.445-1.672,0.963-2.27c0.603-0.695,1.565-0.701,2.418-0.264c0.885,0.457,1.313,1.213,1.313,2.211
	c-0.002,2.492,0,4.984,0.078,7.506c1.058-6.598,3.815-12.318,8.694-16.92C53.858,3.043,59.72,0.572,66.601,0
	c-0.543,6.969-3.084,12.898-7.834,17.844C54,22.807,48.104,25.525,41.29,26.439c6.938,0.512,13.315,2.623,19.367,6.58
	c0.211-1.836,0.407-3.494,0.593-5.152c0.305-2.734,0.468-5.496,0.947-8.199c0.439-2.482,1.601-4.713,3.341-6.586
	c1.865-2.004,4.129-3.133,6.925-3.055c0.978,0.029,1.957,0.006,3.068,0.006c0.023-0.453,0.063-0.85,0.065-1.244
	c0.006-1.928-0.023-3.855,0.013-5.783c0.03-1.576,1.02-2.563,2.444-2.531c1.373,0.033,2.26,1.016,2.271,2.568
	c0.016,2.264,0.005,4.527,0.005,6.99c0.907,0,1.757,0.039,2.604-0.008c4.123-0.221,6.985,1.777,9.039,5.15
	c1.84,3.021,2.372,6.404,2.594,9.867c0.143,2.223,0.261,4.455,0.576,6.656c0.636,4.486,3.072,7.975,6.398,10.903
	c6.064,5.341,9.731,12.026,11.28,19.923c3.782,19.305-9.943,38.623-29.401,41.436c-8.439,1.221-16.306-0.33-23.626-4.67
	c-0.602-0.355-1.021-0.365-1.631-0.023c-23.713,13.295-53.108-0.74-57.626-27.502c-3.648-21.609,11.653-42.193,33.434-44.98
	C34.419,26.727,34.865,26.652,35.443,26.563 M35.446,31.428C19.613,32.684,3.814,47.092,4.79,67.414
	c0.902,18.789,18.085,33.828,36.914,32.154c19.595-1.742,33.844-19.207,31.283-38.451C70.323,41.1,52.728,31.061,40.18,31.381
	c0,0.67,0.018,1.344-0.004,2.018c-0.044,1.43-0.976,2.432-2.274,2.477c-1.342,0.045-2.375-0.965-2.45-2.434
	C35.417,32.775,35.446,32.105,35.446,31.428 M63.3,95.877c0.407,0.221,0.728,0.408,1.061,0.574
	c5.722,2.834,11.787,3.936,18.061,2.854c12.602-2.176,21.266-9.385,24.896-21.635c3.581-12.078,0.539-22.773-8.82-31.43
	c-3.896-3.604-6.965-7.693-7.863-13.037c-0.461-2.748-0.589-5.553-0.811-8.336c-0.2-2.549-0.601-5.031-1.93-7.265
	c-1.121-1.882-2.624-2.968-4.989-2.866c-3.282,0.141-6.579,0.141-9.86-0.002c-2.318-0.1-3.809,0.951-4.923,2.781
	c-1.226,2.014-1.672,4.256-1.918,6.572c-0.394,3.674-0.818,7.344-1.356,10.996c-0.117,0.783-0.027,1.207,0.536,1.729
	c17.271,16.008,16.713,42.957-1.19,58.275C63.911,95.33,63.637,95.58,63.3,95.877 M60.581,6.164
	c-5.51,1.002-13.711,9.242-14.173,14.213C53.267,17.748,57.949,13.063,60.581,6.164"/>
</svg>
