<?xml version="1.0" encoding="utf-8"?>
<!-- Generator: Adobe Illustrator 16.0.0, SVG Export Plug-In . SVG Version: 6.00 Build 0)  -->
<!DOCTYPE svg PUBLIC "-//W3C//DTD SVG 1.1//EN" "http://www.w3.org/Graphics/SVG/1.1/DTD/svg11.dtd">
<svg version="1.1" id="Capa_1" xmlns="http://www.w3.org/2000/svg" xmlns:xlink="http://www.w3.org/1999/xlink" x="0px" y="0px"
	 width="79.998px" height="79.999px" viewBox="0 0 79.998 79.999" enable-background="new 0 0 79.998 79.999" xml:space="preserve">
<g>
	<path fill="#575756" d="M46.65,35.61v0.091h-0.068C46.604,35.679,46.628,35.655,46.65,35.61z"/>
</g>
<path fill="#575756" d="M46.65,35.61v0.091h-0.068C46.604,35.679,46.628,35.655,46.65,35.61z"/>
<g>
	<path fill="none" d="M44.579,35.61c-0.022,0.045-0.046,0.068-0.073,0.091h0.073V35.61z"/>
	<path fill="#575756" d="M17.916,26.72c-0.1,0.187-0.17,0.391-0.17,0.616v25.328c0,0.736,0.599,1.336,1.335,1.336h42.33
		c0.736,0,1.335-0.6,1.335-1.336V27.336c0-0.389-0.173-0.732-0.439-0.977L40.153,41.878L17.916,26.72z"/>
	<path fill="#575756" d="M66.066,2H14.426c-6.45,0-11.68,5.229-11.68,11.679v51.643C2.746,71.771,7.976,77,14.426,77h51.641
		c6.45,0,11.68-5.229,11.68-11.679V13.679C77.746,7.229,72.517,2,66.066,2z M64.746,52.664c0,1.84-1.496,3.336-3.335,3.336h-42.33
		c-1.839,0-3.335-1.496-3.335-3.336V27.336c0-1.84,1.496-3.336,3.335-3.336h42.33c1.839,0,3.335,1.496,3.335,3.336V52.664z"/>
	<path fill="#575756" d="M59.332,26H20.411l19.727,13.446L59.332,26z M44.579,35.61v0.091h-0.073
		C44.533,35.679,44.557,35.655,44.579,35.61z"/>
</g>
</svg>
