<?xml version="1.0" encoding="utf-8"?>
<!-- Generator: Adobe Illustrator 16.0.0, SVG Export Plug-In . SVG Version: 6.00 Build 0)  -->
<!DOCTYPE svg PUBLIC "-//W3C//DTD SVG 1.1//EN" "http://www.w3.org/Graphics/SVG/1.1/DTD/svg11.dtd">
<svg version="1.1" id="Capa_1" xmlns="http://www.w3.org/2000/svg" xmlns:xlink="http://www.w3.org/1999/xlink" x="0px" y="0px"
	 width="79.998px" height="79.999px" viewBox="0 0 79.998 79.999" enable-background="new 0 0 79.998 79.999" xml:space="preserve">
<g>
	<path fill="#575756" d="M65.418,2.626H14.03c-6.451,0-11.679,5.233-11.679,11.68v51.388c0,6.451,5.228,11.68,11.679,11.68h51.388
		c6.447,0,11.68-5.229,11.68-11.68V14.306C77.098,7.859,71.865,2.626,65.418,2.626z M29.523,57.86h-8.016V33.763h8.016V57.86z
		 M25.514,30.474h-0.051c-2.687,0-4.425-1.856-4.425-4.165c0-2.368,1.793-4.17,4.53-4.17c2.741,0,4.43,1.802,4.479,4.17
		C30.048,28.617,28.31,30.474,25.514,30.474z M58.411,57.86H50.4V44.968c0-3.239-1.159-5.452-4.061-5.452
		c-2.213,0-3.531,1.497-4.11,2.934c-0.215,0.516-0.265,1.231-0.265,1.953V57.86h-8.012c0,0,0.105-21.839,0-24.098h8.012v3.413
		c1.067-1.643,2.97-3.979,7.222-3.979c5.27,0,9.225,3.444,9.225,10.849V57.86z"/>
	<path fill="#575756" d="M41.965,37.253v-0.077c-0.014,0.027-0.037,0.055-0.055,0.077H41.965z"/>
</g>
</svg>
