<?xml version="1.0" encoding="utf-8"?>
<!-- Generator: Adobe Illustrator 16.0.0, SVG Export Plug-In . SVG Version: 6.00 Build 0)  -->
<!DOCTYPE svg PUBLIC "-//W3C//DTD SVG 1.1//EN" "http://www.w3.org/Graphics/SVG/1.1/DTD/svg11.dtd">
<svg version="1.1" id="Capa_1" xmlns="http://www.w3.org/2000/svg" xmlns:xlink="http://www.w3.org/1999/xlink" x="0px" y="0px"
	 width="117.344px" height="117.767px" viewBox="0 0 117.344 117.767" enable-background="new 0 0 117.344 117.767"
	 xml:space="preserve">
<circle fill-rule="evenodd" clip-rule="evenodd" fill="none" stroke="#B3B3B3" stroke-width="2" stroke-miterlimit="10" cx="58.672" cy="59.095" r="58.672"/>
<g>
	<path fill-rule="evenodd" clip-rule="evenodd" fill="#B3B3B3" d="M52.443,84.654c-0.593,0-1.075-0.482-1.075-1.076
		c0-0.59,0.482-1.07,1.075-1.07h12.469c0.593,0,1.069,0.48,1.069,1.07c0,0.594-0.477,1.076-1.069,1.076H52.443z"/>
	<path fill-rule="evenodd" clip-rule="evenodd" fill="#B3B3B3" d="M53.829,88.908c-0.593,0-1.074-0.482-1.074-1.072
		c0-0.594,0.481-1.074,1.074-1.074h9.696c0.592,0,1.075,0.48,1.075,1.074c0,0.59-0.483,1.072-1.075,1.072H53.829z"/>
	<path fill-rule="evenodd" clip-rule="evenodd" fill="#B3B3B3" d="M57.665,74.08c0,0.591-0.478,1.068-1.065,1.068
		c-0.591,0-1.069-0.478-1.069-1.068c-0.004-4.515-0.131-7.89-0.754-11.014c-0.619-3.087-1.725-5.952-3.686-9.482
		c-0.284-0.514-0.1-1.166,0.417-1.453c0.519-0.286,1.167-0.102,1.452,0.414c2.083,3.75,3.259,6.803,3.917,10.104
		C57.526,65.907,57.663,69.407,57.665,74.08z"/>
	<path fill-rule="evenodd" clip-rule="evenodd" fill="#B3B3B3" d="M61.824,74.08c0,0.591-0.483,1.068-1.071,1.068
		s-1.065-0.478-1.065-1.068c0.005-4.673,0.141-8.172,0.79-11.432c0.658-3.301,1.834-6.353,3.918-10.104
		c0.284-0.516,0.933-0.7,1.45-0.414c0.519,0.287,0.703,0.939,0.413,1.453c-1.955,3.53-3.062,6.395-3.676,9.482
		C61.955,66.189,61.828,69.564,61.824,74.08z"/>
	<path fill-rule="evenodd" clip-rule="evenodd" fill="#B3B3B3" d="M51.7,54.083c-0.564-0.18-0.872-0.784-0.692-1.345
		c0.181-0.561,0.784-0.87,1.348-0.69c0.745,0.242,1.389,0.564,1.985,0.864l0.062,0.034c0.931,0.467,1.707,0.834,2.282,0.365
		l1.318-1.075c0.457-0.373,1.134-0.303,1.506,0.157c0.368,0.456,0.297,1.133-0.158,1.501l-1.32,1.077
		c-1.641,1.336-2.982,0.684-4.602-0.127l-0.048-0.02C52.855,54.559,52.288,54.273,51.7,54.083z"/>
	<path fill-rule="evenodd" clip-rule="evenodd" fill="#B3B3B3" d="M59.749,29.748c0,0.593-0.482,1.073-1.069,1.073
		c-0.593,0-1.075-0.48-1.075-1.073v-4.156c0-0.592,0.482-1.072,1.075-1.072c0.587,0,1.069,0.479,1.069,1.072V29.748z"/>
	<path fill-rule="evenodd" clip-rule="evenodd" fill="#B3B3B3" d="M65,52.047c0.561-0.179,1.165,0.129,1.347,0.69
		c0.179,0.562-0.133,1.165-0.693,1.345c-0.588,0.191-1.153,0.476-1.681,0.741l-0.048,0.02c-1.619,0.812-2.96,1.463-4.604,0.127
		l-1.317-1.077c-0.459-0.368-0.526-1.045-0.156-1.501c0.372-0.459,1.047-0.529,1.504-0.157l1.32,1.075
		c0.574,0.469,1.351,0.102,2.28-0.365l0.062-0.034C63.609,52.611,64.254,52.289,65,52.047z"/>
	<path fill-rule="evenodd" clip-rule="evenodd" fill="#B3B3B3" d="M72.171,41.191c3.451,3.451,5.588,8.224,5.588,13.494
		c0,2.06-0.33,4.051-0.935,5.914c-0.631,1.932-1.56,3.729-2.731,5.334c-1.971,2.693-3.566,4.46-4.813,5.833
		c-2.227,2.471-3.206,3.552-3.206,7.163c0,0.592-0.481,1.074-1.073,1.074h-0.027h-6.249h-6.28c-0.593,0-1.075-0.482-1.075-1.074
		c0-3.577-0.996-4.667-3.216-7.098v-0.001l-0.005,0.001c-1.249-1.37-2.863-3.139-4.881-5.898c-1.176-1.605-2.104-3.405-2.736-5.334
		c-0.605-1.863-0.939-3.854-0.939-5.914c0-2.579,0.518-5.043,1.452-7.298l0.019-0.042c0.973-2.325,2.38-4.414,4.122-6.154
		c1.755-1.754,3.855-3.171,6.197-4.14l0,0c2.25-0.935,4.719-1.452,7.299-1.452c2.569,0,5.034,0.517,7.289,1.452
		C68.31,38.02,70.421,39.438,72.171,41.191L72.171,41.191z M75.614,54.685c0-4.678-1.895-8.912-4.961-11.976
		c-1.566-1.567-3.434-2.828-5.496-3.682c-1.992-0.825-4.18-1.279-6.478-1.279c-2.304,0-4.492,0.454-6.478,1.279v-0.002l-0.005,0.002
		c-2.066,0.854-3.926,2.115-5.497,3.682c-1.552,1.553-2.802,3.4-3.656,5.443l-0.027,0.057c-0.82,1.987-1.275,4.176-1.275,6.476
		c0,1.836,0.293,3.605,0.828,5.255c0.557,1.712,1.381,3.309,2.421,4.728c1.938,2.651,3.518,4.38,4.741,5.724v0.001
		c2.387,2.608,3.57,3.913,3.76,7.463h5.232h5.228c0.186-3.577,1.351-4.868,3.751-7.521c1.191-1.323,2.735-3.028,4.662-5.668
		c1.039-1.419,1.864-3.014,2.422-4.728C75.319,58.292,75.614,56.523,75.614,54.685z"/>
	<path fill-rule="evenodd" clip-rule="evenodd" fill="#B3B3B3" d="M55.214,93.164c-0.592,0-1.075-0.48-1.075-1.072
		s0.483-1.074,1.075-1.074h6.926c0.593,0,1.074,0.482,1.074,1.074s-0.481,1.072-1.074,1.072H55.214z"/>
	<path fill-rule="evenodd" clip-rule="evenodd" fill="#B3B3B3" d="M71.837,33.557c-0.292,0.512-0.947,0.688-1.461,0.395
		c-0.508-0.293-0.684-0.947-0.391-1.458l2.076-3.6c0.293-0.51,0.947-0.686,1.46-0.395c0.508,0.294,0.684,0.948,0.391,1.459
		L71.837,33.557z"/>
	<path fill-rule="evenodd" clip-rule="evenodd" fill="#B3B3B3" d="M47.367,32.495c0.294,0.51,0.119,1.164-0.39,1.458
		c-0.514,0.292-1.167,0.117-1.461-0.395l-2.078-3.598c-0.291-0.511-0.115-1.165,0.395-1.459c0.514-0.292,1.166-0.116,1.461,0.395
		L47.367,32.495z"/>
	<path fill-rule="evenodd" clip-rule="evenodd" fill="#B3B3B3" d="M38.021,41.055c0.515,0.292,0.689,0.948,0.396,1.459
		c-0.294,0.512-0.948,0.686-1.456,0.392l-3.602-2.076c-0.513-0.294-0.688-0.948-0.395-1.458c0.289-0.512,0.947-0.688,1.457-0.396
		L38.021,41.055z"/>
	<path fill-rule="evenodd" clip-rule="evenodd" fill="#B3B3B3" d="M80.398,42.907c-0.513,0.293-1.166,0.119-1.46-0.393
		c-0.293-0.511-0.119-1.167,0.395-1.459l3.597-2.079c0.513-0.292,1.167-0.116,1.461,0.396c0.29,0.511,0.114,1.165-0.396,1.458
		L80.398,42.907z"/>
	<path fill-rule="evenodd" clip-rule="evenodd" fill="#B3B3B3" d="M47.534,58.924c0.229,0.541-0.025,1.172-0.569,1.399
		c-0.545,0.227-1.171-0.028-1.399-0.57c-0.365-0.865-0.646-1.774-0.839-2.711c-0.184-0.93-0.284-1.876-0.284-2.826
		c0-0.593,0.482-1.074,1.074-1.074s1.07,0.481,1.07,1.074c0,0.838,0.084,1.645,0.237,2.405
		C46.986,57.42,47.228,58.191,47.534,58.924L47.534,58.924z M47.534,49.505c-0.228,0.542-0.855,0.797-1.398,0.569
		c-0.545-0.228-0.799-0.854-0.57-1.398c0.359-0.852,0.798-1.659,1.303-2.406l0.003-0.004h-0.003
		c0.518-0.766,1.105-1.476,1.744-2.119c0.637-0.632,1.344-1.219,2.12-1.74l-0.005-0.001c0.745-0.5,1.552-0.938,2.413-1.303
		c0.858-0.364,1.768-0.646,2.706-0.837c0.93-0.186,1.881-0.285,2.833-0.285c0.587,0,1.069,0.482,1.069,1.072
		c0,0.592-0.482,1.073-1.069,1.073c-0.843,0-1.649,0.083-2.412,0.237c-0.8,0.158-1.571,0.401-2.299,0.708
		c-0.705,0.3-1.396,0.675-2.044,1.112l0,0l0,0c-0.636,0.425-1.237,0.925-1.794,1.482c-0.553,0.552-1.052,1.16-1.487,1.799l0,0
		C48.21,48.109,47.837,48.793,47.534,49.505z"/>
</g>
</svg>
