<?xml version="1.0" encoding="utf-8"?>
<!-- Generator: Adobe Illustrator 15.0.0, SVG Export Plug-In  -->
<!DOCTYPE svg PUBLIC "-//W3C//DTD SVG 1.1//EN" "http://www.w3.org/Graphics/SVG/1.1/DTD/svg11.dtd" [
	<!ENTITY ns_flows "http://ns.adobe.com/Flows/1.0/">
]>
<svg version="1.1"
	 xmlns="http://www.w3.org/2000/svg" xmlns:xlink="http://www.w3.org/1999/xlink" xmlns:a="http://ns.adobe.com/AdobeSVGViewerExtensions/3.0/"
	 x="0px" y="0px" width="132px" height="108px" viewBox="-0.001 0 132 108" enable-background="new -0.001 0 132 108"
	 xml:space="preserve">
<defs>
</defs>
<path fill-rule="evenodd" clip-rule="evenodd" fill="#6A9ACB" d="M34.453,19.637c4.096,0,7.807,1.664,10.484,4.344
	c2.681,2.678,4.344,6.391,4.344,10.48c0,4.094-1.663,7.805-4.344,10.482c-2.678,2.68-6.389,4.342-10.484,4.342
	c-4.086,0-7.799-1.662-10.479-4.342c-2.678-2.678-4.342-6.389-4.342-10.482c0-4.09,1.664-7.803,4.342-10.48
	C26.654,21.301,30.367,19.637,34.453,19.637 M40.639,28.279c-1.582-1.578-3.768-2.561-6.186-2.561c-2.411,0-4.596,0.982-6.18,2.561
	c-1.576,1.582-2.562,3.768-2.562,6.182c0,2.416,0.985,4.6,2.562,6.176c1.584,1.586,3.769,2.563,6.18,2.563
	c2.418,0,4.604-0.977,6.186-2.563c1.578-1.576,2.556-3.76,2.556-6.176C43.194,32.047,42.217,29.861,40.639,28.279"/>
<path fill-rule="evenodd" clip-rule="evenodd" fill="#6A9ACB" d="M37.498,10.896c0,1.684-1.36,3.043-3.045,3.043
	c-1.676,0-3.037-1.359-3.037-3.043V3.041C31.416,1.365,32.777,0,34.453,0c1.685,0,3.045,1.365,3.045,3.041V10.896z"/>
<path fill-rule="evenodd" clip-rule="evenodd" fill="#6A9ACB" d="M3.037,108.193c-1.676,0-3.037-1.369-3.037-3.035
	c0-1.684,1.361-3.047,3.037-3.047h14.451l14.819-14.822c1.183-1.186,3.117-1.186,4.298,0l0.162,0.176l13.393,13.393L87.285,63.73
	c1.188-1.185,3.117-1.185,4.307,0l19.634,19.633c1.181,1.188,1.181,3.117,0,4.305c-1.19,1.182-3.119,1.182-4.306,0L89.438,70.184
	l-37.119,37.117l-0.007-0.005l-0.012,0.005c-1.183,1.184-3.111,1.17-4.285-0.012L34.467,93.736l-13.572,13.564
	c-0.55,0.553-1.313,0.893-2.146,0.893H3.037z"/>
<path fill-rule="evenodd" clip-rule="evenodd" fill="#6A9ACB" d="M37.498,65.877c0,1.682-1.36,3.043-3.045,3.043
	c-1.676,0-3.037-1.361-3.037-3.043v-7.85c0-1.678,1.361-3.045,3.037-3.045c1.685,0,3.045,1.367,3.045,3.045V65.877z"/>
<path fill-rule="evenodd" clip-rule="evenodd" fill="#6A9ACB" d="M58.022,37.502c-1.679,0-3.043-1.369-3.043-3.041
	c0-1.678,1.364-3.039,3.043-3.039h7.854c1.678,0,3.039,1.361,3.039,3.039c0,1.672-1.361,3.041-3.039,3.041H58.022z"/>
<path fill-rule="evenodd" clip-rule="evenodd" fill="#6A9ACB" d="M3.037,37.502C1.361,37.502,0,36.133,0,34.461
	c0-1.678,1.361-3.039,3.037-3.039h7.854c1.677,0,3.044,1.361,3.044,3.039c0,1.672-1.367,3.041-3.044,3.041H3.037z"/>
<path fill-rule="evenodd" clip-rule="evenodd" fill="#6A9ACB" d="M53.27,19.949c-1.181,1.188-3.117,1.188-4.305,0
	c-1.18-1.184-1.18-3.115,0-4.301l5.557-5.557c1.187-1.186,3.117-1.186,4.305,0c1.181,1.188,1.181,3.119,0,4.307L53.27,19.949z"/>
<path fill-rule="evenodd" clip-rule="evenodd" fill="#6A9ACB" d="M14.374,58.826c-1.181,1.18-3.11,1.176-4.285-0.012
	c-1.177-1.189-1.169-3.113,0.013-4.291l5.553-5.555c1.188-1.174,3.113-1.164,4.295,0.023c1.175,1.176,1.169,3.102-0.02,4.285
	L14.374,58.826z"/>
<path fill-rule="evenodd" clip-rule="evenodd" fill="#6A9ACB" d="M19.929,15.648c1.188,1.174,1.194,3.105,0.021,4.287
	c-1.183,1.188-3.106,1.193-4.293,0.014l-5.556-5.551c-1.181-1.182-1.188-3.105-0.012-4.285c1.174-1.188,3.104-1.197,4.284-0.021
	L19.929,15.648z"/>
<path fill-rule="evenodd" clip-rule="evenodd" fill="#6A9ACB" d="M58.826,54.523c1.182,1.186,1.182,3.119,0,4.303
	c-1.188,1.188-3.118,1.188-4.305,0l-5.557-5.549c-1.181-1.189-1.181-3.117,0-4.309c1.188-1.178,3.125-1.178,4.305,0L58.826,54.523z"
	/>
<path fill-rule="evenodd" clip-rule="evenodd" fill="#6A9ACB" d="M96.496,102.396c-1.182,1.184-3.116,1.184-4.299,0
	c-1.188-1.186-1.188-3.117,0-4.305l4.904-4.912l4.914-4.904l4.904-4.912c1.188-1.182,3.115-1.182,4.305,0
	c1.182,1.188,1.182,3.117,0,4.305l-4.912,4.906l-4.904,4.912L96.496,102.396z"/>
<path fill-rule="evenodd" clip-rule="evenodd" fill="#6A9ACB" d="M113.002,45.359c-1.679,0-3.039-1.369-3.039-3.045
	c0-1.678,1.36-3.045,3.039-3.045h7.854c1.325,0,2.53-0.533,3.396-1.4l0.014-0.014c0.865-0.859,1.402-2.066,1.402-3.395
	c0-1.318-0.537-2.527-1.397-3.398l-0.019-0.012c-0.873-0.867-2.07-1.402-3.396-1.402h-3.929c-1.676,0-3.043-1.363-3.043-3.041
	v-0.078c-0.025-2.379-1.002-4.535-2.555-6.096l-0.019-0.01c-1.572-1.572-3.761-2.553-6.167-2.553c-2.4,0-4.583,0.98-6.166,2.563
	c-1.585,1.586-2.568,3.775-2.568,6.174c0,1.678-1.367,3.041-3.044,3.041h-0.081h-3.848c-1.324,0-2.53,0.535-3.395,1.402
	l-0.019,0.012c-0.86,0.871-1.399,2.08-1.399,3.398c0,1.322,0.539,2.527,1.399,3.395l0.019,0.018c0.864,0.863,2.07,1.396,3.395,1.396
	h7.852c1.676,0,3.043,1.367,3.043,3.045c0,1.676-1.367,3.045-3.043,3.045h-7.852c-2.986,0-5.709-1.232-7.688-3.199l-0.011-0.014
	c-1.969-1.98-3.2-4.699-3.2-7.686c0-2.99,1.231-5.711,3.2-7.684l0.011-0.012c1.979-1.975,4.701-3.199,7.688-3.199h1.202
	c0.606-2.863,2.034-5.434,4.032-7.428c2.685-2.686,6.396-4.355,10.473-4.355c4.07,0,7.77,1.67,10.46,4.355l0.013,0.008
	c1.996,2.002,3.428,4.561,4.031,7.42h1.208c2.994,0,5.709,1.225,7.683,3.199l0.019,0.012c1.967,1.973,3.19,4.693,3.19,7.684
	c0,2.979-1.217,5.705-3.197,7.68l-0.012,0.012c-1.974,1.979-4.701,3.207-7.683,3.207H113.002z"/>
<path fill-rule="evenodd" clip-rule="evenodd" fill="#6A9ACB" d="M105.337,54.283c-1.19,1.182-3.118,1.182-4.31,0
	c-1.178-1.187-1.178-3.115,0-4.303l4.916-4.906l4.91-4.912c1.183-1.184,3.11-1.184,4.301,0c1.179,1.188,1.179,3.117,0,4.307
	l-4.914,4.904L105.337,54.283z"/>
</svg>
