<?xml version="1.0" encoding="utf-8"?>
<!-- Generator: Adobe Illustrator 15.0.0, SVG Export Plug-In  -->
<!DOCTYPE svg PUBLIC "-//W3C//DTD SVG 1.1//EN" "http://www.w3.org/Graphics/SVG/1.1/DTD/svg11.dtd" [
	<!ENTITY ns_flows "http://ns.adobe.com/Flows/1.0/">
]>
<svg version="1.1"
	 xmlns="http://www.w3.org/2000/svg" xmlns:xlink="http://www.w3.org/1999/xlink" xmlns:a="http://ns.adobe.com/AdobeSVGViewerExtensions/3.0/"
	 x="0px" y="0px" width="94px" height="102px" viewBox="-0.147 0 94 102" enable-background="new -0.147 0 94 102"
	 xml:space="preserve">
<defs>
</defs>
<path fill="#6A9ACB" d="M40.068,14.914C40.068,6.73,33.371,0,25.188,0c-8.182,0-14.913,6.73-14.913,14.914
	c0,8.182,6.731,14.881,14.913,14.881C33.371,29.795,40.068,23.094,40.068,14.914z M25.192,24.598c-5.408,0-9.722-4.273-9.722-9.678
	c0-5.41,4.313-9.725,9.722-9.725c5.407,0,9.681,4.314,9.681,9.723C34.873,20.324,30.6,24.598,25.192,24.598z"/>
<path fill="#6A9ACB" d="M71.703,0c-8.182,0-14.881,6.73-14.881,14.914c0,8.18,6.699,14.881,14.881,14.881
	s14.912-6.701,14.912-14.881C86.615,6.732,79.885,0,71.703,0z M71.738,24.598c-5.408,0-9.721-4.273-9.721-9.678
	c0-5.41,4.313-9.725,9.721-9.725s9.68,4.314,9.68,9.723C81.418,20.324,77.146,24.598,71.738,24.598z"/>
<path fill="#6A9ACB" d="M48.461,24.791c-8.181,0-14.914,6.73-14.914,14.912s6.733,14.883,14.914,14.883
	c8.184,0,14.881-6.701,14.881-14.881C63.342,31.521,56.645,24.791,48.461,24.791z M48.012,49.389c-5.408,0-9.721-4.271-9.721-9.678
	c0-5.408,4.313-9.725,9.721-9.725s9.68,4.316,9.68,9.725C57.691,45.117,53.42,49.389,48.012,49.389z"/>
<path fill="none" stroke="#6A9ACB" stroke-width="6" stroke-linecap="round" stroke-miterlimit="10" d="M71.223,34.773
	c0,0,20.777-2.787,20.777,14.951v49.217H77"/>
<path fill="none" stroke="#6A9ACB" stroke-width="6" stroke-linecap="round" stroke-miterlimit="10" d="M23.777,34.773
	c0,0-20.777-2.787-20.777,14.951v49.217h15"/>
<path fill="none" stroke="#6A9ACB" stroke-width="6" stroke-linecap="round" stroke-miterlimit="10" d="M38.936,98.979
	c0,0-10.008,1.123-9.84-9.564c0.17-10.689,1.723-27.994,19.777-27.994"/>
<path fill="none" stroke="#6A9ACB" stroke-width="6" stroke-linecap="round" stroke-miterlimit="10" d="M59.033,98.979
	c0,0,10.01,1.123,9.84-9.564C68.703,78.725,67.15,61.42,49.094,61.42"/>
</svg>
