<?xml version="1.0" encoding="utf-8"?>
<!-- Generator: Adobe Illustrator 16.0.0, SVG Export Plug-In . SVG Version: 6.00 Build 0)  -->
<!DOCTYPE svg PUBLIC "-//W3C//DTD SVG 1.1//EN" "http://www.w3.org/Graphics/SVG/1.1/DTD/svg11.dtd">
<svg version="1.1" id="Capa_1" xmlns="http://www.w3.org/2000/svg" xmlns:xlink="http://www.w3.org/1999/xlink" x="0px" y="0px"
	 width="118.191px" height="118.191px" viewBox="0 0 118.191 118.191" enable-background="new 0 0 118.191 118.191"
	 xml:space="preserve">
<circle fill-rule="evenodd" clip-rule="evenodd" fill="none" stroke="#B3B3B3" stroke-width="2" stroke-miterlimit="10" cx="59.096" cy="59.095" r="59.096"/>
<g>
	<path fill-rule="evenodd" clip-rule="evenodd" fill="#B3B3B3" d="M44.746,40.711c0.559,0,1.01,0.453,1.01,1.009
		c0,0.558-0.451,1.011-1.01,1.011h-1.6v39.723h31.896V42.731h-1.598c-0.559,0-1.014-0.453-1.014-1.011
		c0-0.557,0.455-1.009,1.014-1.009h2.58h0.027c0.557,0,1.01,0.453,1.01,1.009v41.718v0.024c0,0.56-0.453,1.012-1.01,1.012H42.166
		h-0.025c-0.559,0-1.01-0.452-1.01-1.012V41.747V41.72c0-0.557,0.451-1.009,1.01-1.009H44.746z"/>
	<path fill-rule="evenodd" clip-rule="evenodd" fill="#B3B3B3" d="M53.877,30.281c0.559,0,1.004,0.45,1.004,1.005
		c0,0.554-0.445,1.006-1.004,1.006l-2.902,0v8.419h16.242v-8.419h-2.904c-0.553,0-1.006-0.452-1.006-1.006
		c0-0.555,0.453-1.005,1.006-1.005l3.814,0.001l0.096-0.006c0.561,0,1.014,0.455,1.014,1.011v10.408v0.027
		c0,0.556-0.453,1.011-1.014,1.011H49.99h-0.025c-0.561,0-1.012-0.455-1.012-1.011V31.288h0.01c0-0.555,0.445-1.005,1.002-1.005
		L53.877,30.281z"/>
	<path fill-rule="evenodd" clip-rule="evenodd" fill="#B3B3B3" d="M57.787,51.863c-0.553,0-1.01-0.454-1.01-1.01
		c0-0.558,0.457-1.012,1.01-1.012h13.047c0.557,0,1.01,0.454,1.01,1.012c0,0.556-0.453,1.01-1.01,1.01H57.787L57.787,51.863z
		 M57.787,75.343c-0.553,0-1.01-0.455-1.01-1.012s0.457-1.01,1.01-1.01h13.047c0.557,0,1.01,0.453,1.01,1.01
		s-0.453,1.012-1.01,1.012H57.787L57.787,75.343z M57.787,67.515c-0.553,0-1.01-0.452-1.01-1.011c0-0.556,0.457-1.009,1.01-1.009
		h13.047c0.557,0,1.01,0.453,1.01,1.009c0,0.559-0.453,1.011-1.01,1.011H57.787L57.787,67.515z M57.787,59.689
		c-0.553,0-1.01-0.453-1.01-1.011c0-0.557,0.457-1.011,1.01-1.011h13.047c0.557,0,1.01,0.454,1.01,1.011
		c0,0.558-0.453,1.011-1.01,1.011H57.787z"/>
	<path fill-rule="evenodd" clip-rule="evenodd" fill="#B3B3B3" d="M47.693,50.804c-0.334-0.445-0.242-1.078,0.201-1.408
		c0.443-0.334,1.076-0.242,1.408,0.201l0.662,0.881l2.127-2.838c0.332-0.444,0.965-0.535,1.41-0.201
		c0.445,0.332,0.537,0.964,0.201,1.408l-2.926,3.898l-0.008,0.014c-0.057,0.076-0.123,0.145-0.203,0.201
		c-0.443,0.332-1.076,0.243-1.408-0.201L47.693,50.804z"/>
	<path fill-rule="evenodd" clip-rule="evenodd" fill="#B3B3B3" d="M47.693,58.63c-0.334-0.442-0.242-1.075,0.201-1.408
		s1.076-0.242,1.408,0.201l0.662,0.883l2.127-2.839c0.332-0.443,0.965-0.534,1.41-0.202c0.445,0.331,0.537,0.965,0.201,1.408
		l-2.926,3.898l-0.008,0.016c-0.057,0.074-0.123,0.145-0.203,0.201c-0.443,0.334-1.076,0.242-1.408-0.201L47.693,58.63z"/>
	<path fill-rule="evenodd" clip-rule="evenodd" fill="#B3B3B3" d="M47.693,66.457c-0.334-0.443-0.242-1.076,0.201-1.409
		s1.076-0.242,1.408,0.201l0.662,0.884l2.127-2.84c0.332-0.443,0.965-0.533,1.41-0.201c0.445,0.334,0.537,0.966,0.201,1.408
		l-2.926,3.898l-0.008,0.016c-0.057,0.075-0.123,0.143-0.203,0.201c-0.443,0.332-1.076,0.242-1.408-0.201L47.693,66.457z"/>
	<path fill-rule="evenodd" clip-rule="evenodd" fill="#B3B3B3" d="M47.693,74.283c-0.334-0.443-0.242-1.078,0.201-1.408
		c0.443-0.334,1.076-0.242,1.408,0.201l0.662,0.883l2.127-2.84c0.332-0.443,0.965-0.533,1.41-0.201s0.537,0.965,0.201,1.408
		l-2.926,3.899L50.77,76.24c-0.057,0.074-0.123,0.143-0.203,0.201c-0.443,0.332-1.076,0.242-1.408-0.201L47.693,74.283z"/>
	<path fill-rule="evenodd" clip-rule="evenodd" fill="#B3B3B3" d="M44.746,34.19c0.559,0,1.01,0.452,1.01,1.01
		c0,0.558-0.451,1.009-1.01,1.009h-6.521c-0.434,0-0.836,0.183-1.127,0.473c-0.289,0.29-0.471,0.69-0.471,1.125v49.568
		c0,0.439,0.182,0.841,0.469,1.125l0.002,0.007c0.287,0.286,0.686,0.466,1.127,0.466h41.74c0.441,0,0.842-0.18,1.131-0.466
		l0.002-0.007c0.289-0.284,0.465-0.686,0.465-1.125V37.808c0-0.439-0.176-0.84-0.465-1.125l-0.002-0.002v0.002
		c-0.293-0.29-0.689-0.473-1.131-0.473h-6.52c-0.559,0-1.014-0.452-1.014-1.008c0-0.559,0.455-1.011,1.014-1.011h6.52
		c0.994,0,1.904,0.41,2.561,1.063l-0.006,0.002c0.66,0.656,1.066,1.563,1.066,2.553v49.568c0,0.988-0.406,1.895-1.061,2.55
		l-0.008,0.006c-0.658,0.655-1.563,1.063-2.553,1.063h-41.74c-0.992,0-1.895-0.407-2.551-1.063l-0.006-0.006
		c-0.654-0.655-1.063-1.562-1.063-2.55V37.808c0-0.995,0.408-1.9,1.063-2.556c0.654-0.653,1.563-1.063,2.557-1.063H44.746z"/>
	<path fill-rule="evenodd" clip-rule="evenodd" fill="#B3B3B3" d="M59.096,26.362c0.813,0,1.557,0.335,2.094,0.869l0.006,0.004
		c0.533,0.537,0.867,1.278,0.867,2.094c0,0.815-0.334,1.558-0.867,2.094l-0.006,0.002l0.006,0.002c-0.539,0.536-1.279,0.87-2.1,0.87
		c-0.818,0-1.563-0.334-2.096-0.87c-0.535-0.535-0.873-1.279-0.873-2.098c0-0.816,0.338-1.558,0.873-2.094v-0.001
		C57.533,26.697,58.277,26.362,59.096,26.362L59.096,26.362z M59.768,28.662l-0.002-0.006c-0.17-0.167-0.408-0.271-0.67-0.271
		c-0.258,0-0.496,0.108-0.668,0.278l-0.002-0.002l-0.004,0.002c-0.166,0.167-0.271,0.405-0.271,0.668
		c0,0.26,0.105,0.499,0.277,0.669c0.172,0.171,0.41,0.278,0.668,0.278c0.262,0,0.5-0.107,0.67-0.278l0.002,0.003
		c0.164-0.171,0.271-0.407,0.271-0.672C60.039,29.068,59.938,28.833,59.768,28.662z"/>
</g>
</svg>
