<?xml version="1.0" encoding="utf-8"?>
<!-- Generator: Adobe Illustrator 16.0.0, SVG Export Plug-In . SVG Version: 6.00 Build 0)  -->
<!DOCTYPE svg PUBLIC "-//W3C//DTD SVG 1.1//EN" "http://www.w3.org/Graphics/SVG/1.1/DTD/svg11.dtd">
<svg version="1.1" id="Capa_1" xmlns="http://www.w3.org/2000/svg" xmlns:xlink="http://www.w3.org/1999/xlink" x="0px" y="0px"
	 width="120.328px" height="120.727px" viewBox="0 0 120.328 120.727" enable-background="new 0 0 120.328 120.727"
	 xml:space="preserve">
<circle fill-rule="evenodd" clip-rule="evenodd" fill="#FFFFFF" stroke="#B3B3B3" stroke-width="2" stroke-miterlimit="10" cx="60.191" cy="60.54" r="59.096"/>
<g>
	<g>
		<path fill-rule="evenodd" clip-rule="evenodd" fill="#B3B3B3" d="M82.907,66.874c-0.527,0-0.955-0.428-0.955-0.955
			c0-0.526,0.428-0.955,0.955-0.955h4.219c0.416,0,0.797-0.171,1.07-0.443c0.273-0.275,0.445-0.654,0.445-1.068v-4.933
			c0-0.416-0.172-0.793-0.439-1.065l-0.006-0.002v0.002c-0.273-0.273-0.654-0.444-1.07-0.444h-4.219
			c-0.479,0-0.873-0.354-0.943-0.813c-0.287-1.318-0.688-2.594-1.192-3.811l-0.019-0.051c-0.516-1.234-1.143-2.421-1.865-3.538
			c-0.25-0.385-0.192-0.883,0.125-1.193l-0.006-0.002l2.991-2.986c0.288-0.293,0.438-0.682,0.438-1.07
			c0-0.387-0.15-0.776-0.438-1.068l-3.489-3.488c-0.293-0.294-0.68-0.439-1.07-0.439c-0.389,0-0.781,0.145-1.068,0.433v0.005v0.001
			l-2.983,2.985c-0.342,0.341-0.883,0.369-1.255,0.088c-1.111-0.718-2.295-1.341-3.527-1.848l-0.006-0.003v0.003
			c-1.233-0.514-2.523-0.919-3.865-1.205c-0.446-0.096-0.756-0.491-0.756-0.932l0,0v-4.222c0-0.417-0.172-0.795-0.441-1.066
			l-0.002-0.004c-0.273-0.271-0.652-0.441-1.072-0.441h-4.93c-0.416,0-0.792,0.17-1.066,0.441l-0.002,0.004
			c-0.273,0.271-0.441,0.649-0.441,1.066v4.222c0,0.478-0.35,0.873-0.811,0.941c-1.326,0.288-2.602,0.69-3.813,1.191v0.001
			c-1.26,0.522-2.462,1.155-3.591,1.887c-0.381,0.249-0.881,0.188-1.193-0.126v0.002l-2.986-2.985l-0.002-0.001
			c-0.291-0.293-0.68-0.438-1.069-0.438c-0.383,0-0.776,0.145-1.063,0.438v0.001l-3.493,3.488c-0.287,0.292-0.435,0.681-0.435,1.068
			s0.147,0.776,0.435,1.069l0.053,0.052l2.936,2.938c0.324,0.324,0.363,0.822,0.119,1.19c-0.729,1.126-1.363,2.333-1.879,3.588
			c-0.518,1.233-0.92,2.527-1.209,3.866c-0.094,0.446-0.49,0.755-0.932,0.755v0.002h-4.22c-0.42,0-0.792,0.169-1.066,0.439
			l-0.008,0.003c-0.269,0.275-0.437,0.654-0.437,1.067v4.934c0,0.413,0.171,0.792,0.444,1.067l0.041,0.043
			c0.268,0.248,0.63,0.4,1.025,0.4h4.22c0.478,0,0.875,0.354,0.945,0.813c0.285,1.317,0.685,2.596,1.195,3.812l0.016,0.048
			c0.516,1.237,1.145,2.422,1.863,3.543c0.252,0.383,0.188,0.877-0.123,1.192h0.004l-2.988,2.988
			c-0.287,0.291-0.435,0.682-0.435,1.068c0,0.389,0.147,0.777,0.435,1.07l3.493,3.488c0.286,0.291,0.68,0.438,1.063,0.438
			c0.392,0,0.778-0.146,1.071-0.434l2.986-2.986c0.328-0.33,0.834-0.371,1.205-0.121c1.125,0.727,2.324,1.359,3.579,1.879
			l0.042,0.018c1.213,0.502,2.498,0.9,3.824,1.186c0.446,0.096,0.752,0.49,0.752,0.932h0.006v4.219c0,0.416,0.168,0.795,0.436,1.068
			l0.008,0.004c0.274,0.271,0.65,0.439,1.066,0.439h4.93c0.416,0,0.799-0.17,1.072-0.445l0.041-0.041
			c0.246-0.266,0.402-0.629,0.402-1.025v-4.219c0-0.479,0.353-0.873,0.813-0.943c1.317-0.287,2.591-0.688,3.805-1.191
			c1.263-0.523,2.466-1.156,3.597-1.887c0.383-0.25,0.883-0.186,1.194,0.129l0.013,0.016l2.971,2.969v-0.002
			c0.293,0.291,0.682,0.438,1.068,0.438c0.391,0,0.781-0.146,1.07-0.436v-0.002l3.489-3.488l0.04-0.041
			c0.266-0.287,0.398-0.658,0.398-1.029c0-0.387-0.15-0.777-0.438-1.068l-0.749-0.746l-0.746-0.748l-0.744-0.746l-0.047-0.051
			l-0.696-0.697c-0.337-0.328-0.37-0.844-0.117-1.216l0.249-0.392l0,0l0.266-0.447l0.024-0.029l0.217-0.387l0.247-0.46l0.01-0.02
			l0.214-0.41v-0.001l0.226-0.473c0.227-0.475,0.8-0.674,1.273-0.445c0.477,0.229,0.67,0.799,0.443,1.272l-0.227,0.474h-0.004
			l-0.012,0.019l-0.219,0.427l-0.026,0.061l-0.247,0.461l-0.015,0.018l-0.242,0.43l-0.027,0.047l-0.157,0.259l0.161,0.161
			l0.056,0.051l0.745,0.747l0.745,0.746l0.751,0.746c0.662,0.666,0.997,1.543,0.997,2.42c0,0.842-0.31,1.688-0.934,2.346
			l-0.063,0.074l-3.49,3.49v-0.004l-0.008,0.004c-0.667,0.662-1.537,0.996-2.413,0.996c-0.875,0-1.758-0.334-2.42-0.996l0.004-0.004
			l-0.004-0.004l-2.449-2.447c-1.033,0.623-2.119,1.172-3.243,1.639c-1.108,0.459-2.257,0.84-3.44,1.133v3.461
			c0,0.904-0.357,1.734-0.938,2.348l-0.064,0.068c-0.621,0.621-1.477,1.006-2.422,1.006h-4.93c-0.94,0-1.791-0.385-2.414-1.002
			l-0.002-0.008c-0.615-0.617-1.008-1.475-1.008-2.412v-3.461c-1.156-0.291-2.285-0.664-3.381-1.111l-0.058-0.021
			c-1.12-0.469-2.208-1.016-3.243-1.639l-2.447,2.447l-0.006,0.008c-0.666,0.662-1.545,0.996-2.417,0.996
			c-0.873,0-1.749-0.334-2.416-0.996l-3.489-3.49c-0.663-0.666-1-1.543-1-2.42s0.337-1.756,1-2.42l2.451-2.452
			c-0.607-1.015-1.155-2.082-1.615-3.189l-0.02-0.049c-0.461-1.108-0.838-2.26-1.137-3.443h-3.462c-0.901,0-1.731-0.356-2.349-0.941
			l-0.068-0.063c-0.616-0.619-1.005-1.479-1.005-2.417v-4.934c0-0.938,0.389-1.792,1.005-2.412l0.003-0.006
			c0.622-0.617,1.474-1,2.414-1h3.462c0.299-1.183,0.676-2.334,1.137-3.445c0.465-1.123,1.01-2.208,1.635-3.24l-2.396-2.399
			l-0.055-0.05c-0.663-0.665-1-1.545-1-2.418c0-0.877,0.337-1.755,1-2.418l3.489-3.488v-0.002c0.667-0.666,1.543-0.998,2.416-0.998
			c0.88,0,1.753,0.332,2.417,0.998l0.006,0.002l2.449,2.449c1.037-0.623,2.121-1.171,3.239-1.636l0,0h0.005
			c1.109-0.459,2.258-0.841,3.436-1.136v-3.462c0-0.936,0.389-1.792,1.008-2.413l0.002-0.004c0.623-0.619,1.478-1.003,2.414-1.003
			h4.93c0.94,0,1.799,0.385,2.414,1.003l0.008,0.004c0.615,0.621,1.002,1.477,1.002,2.413v3.462
			c1.184,0.295,2.338,0.676,3.447,1.136v0.002c1.125,0.467,2.207,1.014,3.234,1.634l2.451-2.449l0.004,0.001
			c0.668-0.667,1.545-1.001,2.416-1.001c0.876,0,1.753,0.332,2.421,1l3.49,3.488c0.662,0.663,0.997,1.541,0.997,2.418
			c0,0.874-0.335,1.754-0.997,2.419l-2.452,2.453c0.608,1.015,1.148,2.082,1.611,3.192l0.02,0.045
			c0.463,1.111,0.846,2.262,1.136,3.445h3.462c0.941,0,1.803,0.384,2.422,1.003l-0.006,0.001c0.621,0.622,1.008,1.478,1.008,2.415
			v4.933c0,0.939-0.387,1.799-1.002,2.418c-0.619,0.619-1.48,1.004-2.422,1.004H82.907L82.907,66.874z M51.44,81.778l0.475,1.229
			C52.112,82.534,51.9,81.991,51.44,81.778L51.44,81.778z M78.898,73.154l0.108-0.128C78.969,73.065,78.929,73.11,78.898,73.154
			L78.898,73.154z M79.911,71.419l0.346-0.346C80.117,71.154,80,71.271,79.911,71.419z"/>
	</g>
	<path fill-rule="evenodd" clip-rule="evenodd" fill="#B3B3B3" d="M59.997,48.931c3.333,0,6.348,1.351,8.525,3.532
		c2.177,2.18,3.529,5.193,3.529,8.524c0,3.328-1.353,6.342-3.529,8.521c-2.178,2.18-5.192,3.531-8.525,3.531
		c-3.325,0-6.342-1.352-8.525-3.531c-2.177-2.18-3.526-5.193-3.526-8.521s1.35-6.344,3.526-8.524
		C53.655,50.282,56.672,48.931,59.997,48.931L59.997,48.931z M67.172,53.813c-1.835-1.833-4.372-2.971-7.175-2.971
		c-2.799,0-5.333,1.136-7.171,2.971c-1.833,1.834-2.972,4.37-2.972,7.173c0,2.801,1.139,5.336,2.972,7.172
		c1.838,1.834,4.372,2.971,7.171,2.971c2.803,0,5.34-1.137,7.175-2.971c1.835-1.836,2.972-4.373,2.972-7.172
		C70.144,58.186,69.007,55.647,67.172,53.813z"/>
	<path fill-rule="evenodd" clip-rule="evenodd" fill="#B3B3B3" d="M59.997,53.866c1.967,0,3.75,0.796,5.035,2.084
		c1.287,1.286,2.087,3.069,2.087,5.037c0,1.96-0.8,3.738-2.087,5.029v0.003l-0.004,0.003l-0.004,0.002
		c-1.288,1.287-3.068,2.084-5.027,2.084c-1.963,0-3.749-0.799-5.037-2.086c-1.285-1.288-2.084-3.07-2.084-5.035
		c0-1.961,0.799-3.745,2.084-5.032l0.008-0.004C56.256,54.663,58.036,53.866,59.997,53.866L59.997,53.866z M63.681,57.302
		c-0.941-0.943-2.239-1.526-3.684-1.526c-1.438,0-2.741,0.582-3.688,1.52v0.006c-0.938,0.942-1.522,2.244-1.522,3.685
		c0,1.438,0.586,2.742,1.522,3.683c0.946,0.942,2.25,1.526,3.688,1.526c1.444,0,2.748-0.582,3.684-1.521l0.01-0.005
		c0.937-0.938,1.52-2.241,1.52-3.683S64.627,58.244,63.681,57.302z"/>
</g>
</svg>
