<?xml version="1.0" encoding="utf-8"?>
<!-- Generator: Adobe Illustrator 16.0.0, SVG Export Plug-In . SVG Version: 6.00 Build 0)  -->
<!DOCTYPE svg PUBLIC "-//W3C//DTD SVG 1.1//EN" "http://www.w3.org/Graphics/SVG/1.1/DTD/svg11.dtd">
<svg version="1.1" id="Capa_1" xmlns="http://www.w3.org/2000/svg" xmlns:xlink="http://www.w3.org/1999/xlink" x="0px" y="0px"
	 width="118.191px" height="118.191px" viewBox="0 0 118.191 118.191" enable-background="new 0 0 118.191 118.191"
	 xml:space="preserve">
<circle fill-rule="evenodd" clip-rule="evenodd" fill="none" stroke="#B3B3B3" stroke-width="2" stroke-miterlimit="10" cx="59.096" cy="59.095" r="59.096"/>
<g>
	<path fill-rule="evenodd" clip-rule="evenodd" fill="#B3B3B3" d="M63.183,48.711c0-3.928-1.592-7.484-4.158-10.053l-0.004-0.002
		l-0.002,0.002c-2.572-2.573-6.128-4.165-10.051-4.165c-3.928,0-7.483,1.592-10.056,4.163c-2.57,2.572-4.16,6.127-4.16,10.055
		c0,3.926,1.592,7.481,4.162,10.051c2.572,2.573,6.128,4.167,10.054,4.167c3.923,0,7.479-1.594,10.051-4.167l0.05-0.044
		C61.61,56.154,63.183,52.615,63.183,48.711L63.183,48.711z M60.403,37.274c2.93,2.928,4.742,6.975,4.742,11.437
		c0,4.433-1.789,8.456-4.686,11.38l-0.055,0.059c-2.924,2.927-6.971,4.74-11.438,4.74c-4.468,0-8.516-1.813-11.441-4.74
		c-2.928-2.926-4.737-6.972-4.737-11.439c0-4.465,1.812-8.509,4.737-11.437l0.004-0.002c2.928-2.926,6.975-4.739,11.438-4.739
		c4.467,0,8.514,1.813,11.438,4.739L60.403,37.274z"/>
	<path fill-rule="evenodd" clip-rule="evenodd" fill="#B3B3B3" d="M67.269,59.504c-0.275,0.465-0.878,0.618-1.34,0.346
		c-0.467-0.277-0.619-0.877-0.344-1.342c2.205-3.74,3.043-8.064,2.514-12.245c-0.52-4.086-2.354-8.044-5.498-11.187
		c-3.764-3.766-8.701-5.647-13.635-5.647c-4.937,0-9.873,1.881-13.633,5.643l-0.004,0.002l0.004,0.002
		c-3.766,3.764-5.648,8.701-5.648,13.635c0,4.935,1.883,9.871,5.648,13.635c3.762,3.765,8.698,5.647,13.633,5.647
		c4.936,0,9.877-1.882,13.639-5.647c0.382-0.379,1.006-0.377,1.385,0.006c0.378,0.381,0.377,1.003-0.006,1.381
		c-4.148,4.147-9.585,6.224-15.018,6.224c-5.434,0-10.876-2.077-15.021-6.224c-4.149-4.147-6.224-9.587-6.224-15.021
		c0-5.435,2.074-10.873,6.224-15.022l0.002,0.003c4.148-4.151,9.587-6.226,15.019-6.226c5.435,0,10.875,2.073,15.023,6.223
		c3.456,3.458,5.476,7.818,6.047,12.328C70.621,50.624,69.698,55.388,67.269,59.504z"/>
	<path fill-rule="evenodd" clip-rule="evenodd" fill="#B3B3B3" d="M48.968,37.598c0.541,0,0.979,0.44,0.979,0.98
		c0,0.541-0.438,0.983-0.979,0.983c-0.638,0-1.248,0.062-1.826,0.175c-0.602,0.123-1.188,0.305-1.739,0.54
		c-0.533,0.225-1.054,0.507-1.546,0.84l-0.049,0.03c-0.461,0.314-0.902,0.684-1.313,1.095c-0.832,0.832-1.506,1.82-1.965,2.906
		c-0.234,0.553-0.416,1.137-0.537,1.74c-0.115,0.574-0.177,1.187-0.177,1.824c0,0.542-0.441,0.98-0.979,0.98
		c-0.542,0-0.983-0.439-0.983-0.98c0-0.741,0.08-1.482,0.224-2.206c0.149-0.735,0.369-1.443,0.654-2.117
		c0.565-1.335,1.38-2.538,2.379-3.535c0.475-0.477,1.012-0.922,1.596-1.319l0.056-0.042c0.581-0.392,1.21-0.732,1.883-1.017
		c0.672-0.285,1.382-0.504,2.115-0.653C47.485,37.676,48.226,37.598,48.968,37.598z"/>
	<path fill-rule="evenodd" clip-rule="evenodd" fill="#B3B3B3" d="M62.601,63.732c-0.382-0.38-0.382-1.004,0-1.387
		c0.383-0.381,1.006-0.381,1.389,0l5.592,5.593c0.383,0.381,0.383,1.004,0,1.386c-0.381,0.383-1.005,0.383-1.388,0L62.601,63.732z"
		/>
	<path fill-rule="evenodd" clip-rule="evenodd" fill="#B3B3B3" d="M68.355,68.104v-0.002c0.685-0.681,1.587-1.024,2.485-1.024
		c0.896,0,1.794,0.343,2.478,1.024l0.002,0.004l0.004-0.004v0.002l5.372,5.372l5.375,5.375l5.371,5.371l0.002,0.002
		c0.684,0.684,1.025,1.584,1.025,2.48s-0.342,1.795-1.025,2.48l-0.002,0.002l0.002,0.004l-0.002,0.002l0,0
		c-0.684,0.684-1.586,1.025-2.484,1.025s-1.801-0.342-2.482-1.025h-0.002l-5.373-5.375l-5.373-5.373l-5.372-5.371l-0.002-0.002
		c-0.681-0.684-1.024-1.586-1.024-2.485c0-0.897,0.344-1.798,1.024-2.482L68.355,68.104L68.355,68.104z M88.055,85.609l-5.371-5.374
		l-5.375-5.373l-5.372-5.371l0,0l0.002-0.004c-0.301-0.296-0.697-0.447-1.098-0.447c-0.398,0-0.797,0.151-1.098,0.452l0,0
		l-0.002,0.002c-0.301,0.298-0.449,0.698-0.449,1.094c0,0.397,0.148,0.796,0.449,1.097h0.002l5.371,5.373l5.374,5.373l5.373,5.374
		h0.003c0.298,0.301,0.697,0.451,1.094,0.451s0.797-0.15,1.097-0.451l0,0l0.002-0.002l0.003,0.002
		c0.298-0.299,0.449-0.695,0.449-1.1c0-0.396-0.151-0.793-0.452-1.094L88.055,85.609"/>
</g>
</svg>
